<?xml version="1.0" encoding="UTF-8" standalone="no"?>
<svg
   xmlns:dc="http://purl.org/dc/elements/1.1/"
   xmlns:cc="http://creativecommons.org/ns#"
   xmlns:rdf="http://www.w3.org/1999/02/22-rdf-syntax-ns#"
   xmlns:svg="http://www.w3.org/2000/svg"
   xmlns="http://www.w3.org/2000/svg"
   xmlns:sodipodi="http://sodipodi.sourceforge.net/DTD/sodipodi-0.dtd"
   xmlns:inkscape="http://www.inkscape.org/namespaces/inkscape"
   inkscape:export-ydpi="96"
   inkscape:export-xdpi="96"
   inkscape:export-filename="C:\Users\SimonDückert\OneDrive - Cogneon GmbH\Dokumente\GitHub\lernos-core\images\lernOSvsVirus\lernOSvsVirus-4000px.png"
   sodipodi:docname="lernOSvsVirus.svg"
   inkscape:version="1.0 (4035a4fb49, 2020-05-01)"
   id="svg8"
   version="1.1"
   viewBox="0 0 1058.3325 1058.334"
   height="4000"
   width="4000">
  <defs
     id="defs2">




</defs>
  <sodipodi:namedview
     inkscape:document-rotation="0"
     inkscape:pagecheckerboard="true"
     units="px"
     inkscape:window-maximized="1"
     inkscape:window-y="-9"
     inkscape:window-x="-9"
     inkscape:window-height="1013"
     inkscape:window-width="1920"
     showgrid="false"
     inkscape:current-layer="g941"
     inkscape:document-units="mm"
     inkscape:cy="1874.278"
     inkscape:cx="2129.7477"
     inkscape:zoom="0.175"
     inkscape:pageshadow="2"
     inkscape:pageopacity="0"
     borderopacity="1.0"
     bordercolor="#666666"
     pagecolor="#ffffff"
     id="base" />
  <metadata
     id="metadata5">
    <rdf:RDF>
      <cc:Work
         rdf:about="">
        <dc:format>image/svg+xml</dc:format>
        <dc:type
           rdf:resource="http://purl.org/dc/dcmitype/StillImage" />
        <dc:title></dc:title>
      </cc:Work>
    </rdf:RDF>
  </metadata>
  <g
     transform="translate(0,-270.54134)"
     id="layer1"
     inkscape:groupmode="layer"
     inkscape:label="Layer 1">
    <g
       style="fill:#ffffff;stroke-width:1.04451"
       transform="matrix(0.95738894,0,0,0.95738894,-3.523277,267.39511)"
       id="g941">
      <text
         xml:space="preserve"
         style="font-style:normal;font-weight:normal;font-size:89.0047px;line-height:1.25;font-family:sans-serif;letter-spacing:0px;word-spacing:0px;fill:#ffffff;fill-opacity:1;stroke:none;stroke-width:2.32415"
         x="251.5845"
         y="1069.1599"
         id="text817"><tspan
           sodipodi:role="line"
           id="tspan815"
           x="251.5845"
           y="1069.1599"
           style="font-style:normal;font-variant:normal;font-weight:300;font-stretch:normal;font-size:89.0047px;font-family:'Open Sans';-inkscape-font-specification:'Open Sans, Light';font-variant-ligatures:normal;font-variant-caps:normal;font-variant-numeric:normal;font-feature-settings:normal;text-align:start;writing-mode:lr-tb;text-anchor:start;fill:#ffffff;stroke-width:2.32415">#lernOSvsVirus</tspan></text>
      <g
         transform="matrix(1.8015676,0,0,1.8015676,-468.25613,37.747444)"
         id="g1375">
        <g
           id="g1325">
          <path
             d="m 564.47233,18.174075 c 4.0598,-0.309018 8.03305,-0.263959 12.0125,0.04762 -1.55611,3.284404 -3.46546,6.395732 -5.01713,9.681031 2.37301,-0.998858 4.5685,-2.082464 6.85229,-3.25526 0.12463,3.355028 0.0741,6.799309 -0.15371,10.157884 -2.13014,-0.948495 -4.08456,-2.163697 -6.12813,-3.289709 0.016,1.588771 0.0345,3.178437 0.0521,4.856398 3.01859,1.558765 6.13698,3.908799 6.26679,7.61624 0.50692,6.089272 -7.03953,10.587089 -12.19357,7.640047 -4.34503,-1.718577 -5.99919,-7.442237 -3.48045,-11.266224 1.30087,-2.311207 3.94145,-3.134273 6.13519,-4.396291 -0.0192,-1.677098 -0.038,-3.442492 -0.14476,-5.120453 -2.01712,1.258471 -4.12252,2.516942 -6.31802,3.68977 -0.2173,-3.706547 -0.25693,-7.327451 0.0556,-10.950975 2.31296,1.476604 4.53584,2.952346 6.93355,4.163138 -1.44659,-3.251745 -3.2473,-6.410752 -4.87228,-9.573275 z"
             id="path962"
             inkscape:connector-curvature="0"
             style="fill:#ffffff;stroke:#ffffff;stroke-width:0.0828387" />
          <path
             d="m 564.37429,41.492583 c 1.40154,-1.074786 2.80132,-2.061277 4.29295,-3.049493 0.0192,1.589634 0.0345,3.1793 -0.0361,4.680638 -1.41832,-0.514879 -2.83753,-1.028864 -4.25674,-1.631145 z"
             id="path964"
             inkscape:connector-curvature="0"
             style="fill:#000000;fill-opacity:1;stroke:none;stroke-width:0.0828387" />
          <path
             d="m 572.11858,38.934098 c 1.15778,1.048295 2.32,2.184021 3.39127,3.319748 -1.14544,0.365612 -2.28913,0.731224 -3.43102,1.185163 -0.016,-1.500444 -0.0326,-3.002677 0.0396,-4.504911 z"
             id="path966"
             inkscape:connector-curvature="0"
             style="fill:#000000;fill-opacity:1;stroke:none;stroke-width:0.0828387" />
          <path
             d="m 552.77774,47.09433 c 1.92613,-1.610853 5.56292,-0.149236 5.50198,2.412764 0.29336,2.381831 -2.42862,4.089831 -4.557,3.317064 -2.82961,-0.321449 -3.49283,-4.465158 -0.94498,-5.729828 z"
             id="path968"
             inkscape:connector-curvature="0"
             style="fill:#ffffff;stroke:#ffffff;stroke-width:0.0828387" />
          <path
             d="m 564.26213,47.498833 c 3.43897,-0.567863 7.49435,-1.141926 10.17645,1.743312 -3.51842,1.36447 -7.5809,1.319411 -10.17645,-1.743312 z"
             id="path970"
             inkscape:connector-curvature="0"
             style="fill:#000000;fill-opacity:1;stroke:none;stroke-width:0.0828387" />
          <path
             d="m 581.03301,46.696922 c 2.45073,-2.05773 6.64123,1.16487 4.99151,4.00946 -0.94494,2.48342 -5.18315,2.705963 -6.09544,0.06711 -1.07478,-1.403328 -0.12271,-3.178437 1.10393,-4.0766 z"
             id="path972"
             inkscape:connector-curvature="0"
             style="fill:#ffffff;stroke:#ffffff;stroke-width:0.0828387" />
          <path
             d="m 543.08351,48.966617 c 2.19019,-1.526072 5.7466,0.554602 5.24409,3.211097 -0.41684,2.123943 -3.2226,3.92027 -5.0931,2.528446 -2.48428,-0.944085 -2.43747,-4.654179 -0.15115,-5.739543 z"
             id="path974"
             inkscape:connector-curvature="0"
             style="fill:#ffffff;stroke:#ffffff;stroke-width:0.0828387" />
          <path
             d="m 591.66165,49.319862 c 2.98765,-1.182542 6.39394,3.10954 3.41331,5.261764 -1.39358,1.782171 -4.22584,1.372395 -5.30589,-0.470716 -1.43158,-1.662974 -0.046,-4.240856 1.89258,-4.791048 z"
             id="path976"
             inkscape:connector-curvature="0"
             style="fill:#ffffff;stroke:#ffffff;stroke-width:0.0828387" />
          <path
             d="m 532.55292,55.264309 c 0.317,-3.271175 6.31798,-3.777203 6.44517,-0.159143 0.4663,2.201661 -1.82106,3.110434 -3.22171,4.186083 -1.33708,-1.133042 -3.55466,-1.992347 -3.22346,-4.0271 z"
             id="path978"
             inkscape:connector-curvature="0"
             style="fill:#ffffff;stroke:#ffffff;stroke-width:0.0828387" />
          <path
             d="m 600.6211,53.019347 c 1.75568,-0.901679 4.68333,0.126227 4.61798,2.246719 0.65175,2.90553 -3.30297,4.892605 -5.35364,2.883449 -2.04533,-1.125118 -1.19843,-4.402459 0.73566,-5.130168 z"
             id="path980"
             inkscape:connector-curvature="0"
             style="fill:#ffffff;stroke:#ffffff;stroke-width:0.0828387" />
          <path
             d="m 517.70641,70.618605 c 12.447,-8.617686 26.95881,-14.250398 41.8583,-16.620724 2.27142,5.804893 4.45544,11.698081 5.49492,17.868618 -1.14723,0.188861 -2.29264,0.289524 -3.35065,0.478641 -1.02621,-5.023306 -2.49489,-10.043097 -4.48903,-14.700791 -16.91837,3.452207 -33.26797,10.784963 -46.12211,22.495411 -0.88931,-0.521048 -1.77955,-1.128633 -2.66796,-1.648817 2.70417,-3.120149 5.94441,-5.539944 9.27653,-7.872338 z"
             id="path982"
             inkscape:connector-curvature="0"
             style="fill:#ffffff;stroke:#ffffff;stroke-width:0.0828387" />
          <path
             d="m 568.04729,54.347578 c 3.86463,-1.896989 6.67301,4.517278 2.53637,5.887053 -3.77896,1.63204 -6.31799,-4.255876 -2.53637,-5.887053 z"
             id="path984"
             inkscape:connector-curvature="0"
             style="fill:#ffffff;stroke:#ffffff;stroke-width:0.0828387" />
          <path
             d="m 579.35416,54.577216 c 18.40293,2.977081 35.7187,11.443741 49.71827,23.65584 -0.70211,0.801911 -1.39713,1.60379 -2.18226,2.496649 -12.93006,-11.340426 -28.73657,-19.116511 -45.556,-22.553699 -1.89082,4.78929 -3.51225,9.664223 -4.60912,14.623073 -1.06066,-0.166173 -2.21141,-0.329405 -3.27204,-0.493661 1.26023,-6.106944 3.40009,-12.048705 5.90115,-17.728202 z"
             id="path986"
             inkscape:connector-curvature="0"
             style="fill:#ffffff;stroke:#ffffff;stroke-width:0.0828387" />
          <path
             d="m 524.90843,58.79158 c -0.0192,-1.76453 2.36416,-1.968539 3.58997,-2.776618 0.89461,0.961757 1.69828,1.923481 2.5938,2.885238 -0.95911,1.071239 -1.46693,3.195214 -3.23497,3.037989 -1.67621,0.106734 -3.54846,-1.37329 -2.9488,-3.146609 z"
             id="path988"
             inkscape:connector-curvature="0"
             style="fill:#ffffff;stroke:#ffffff;stroke-width:0.0828387" />
          <path
             d="m 608.7999,57.875745 c 1.58347,-0.284411 3.70124,-0.658811 4.51549,1.097763 1.16222,1.312349 -0.0466,3.799252 -1.72299,3.905251 -1.76098,0.549296 -2.84107,-1.117192 -3.99798,-1.98797 0.34528,-0.708279 0.85927,-2.21668 1.20548,-3.015044 z"
             id="path990"
             inkscape:connector-curvature="0"
             style="fill:#ffffff;stroke:#ffffff;stroke-width:0.0828387" />
          <path
             d="m 516.39847,64.095718 c 1.21344,-2.22288 3.41245,-2.864019 5.80399,-2.360643 0.10514,1.500476 0.0345,3.091899 -0.039,4.594101 -2.37918,0.555496 -4.50491,-0.03963 -5.76514,-2.233458 z"
             id="path992"
             inkscape:connector-curvature="0"
             style="fill:#ffffff;stroke:#ffffff;stroke-width:0.0828387" />
          <path
             d="m 565.86151,64.438386 c 1.21165,-2.398608 3.41069,-2.951484 5.88967,-2.361539 0.0192,1.503129 0.0326,3.003573 -0.038,4.594996 -2.37918,0.554602 -4.59058,0.04953 -5.85171,-2.233457 z"
             id="path994"
             inkscape:connector-curvature="0"
             style="fill:#ffffff;stroke:#ffffff;stroke-width:0.0828387" />
          <path
             d="m 617.3284,62.374488 c 3.77896,-1.806936 5.61414,4.620593 1.55432,4.929674 -3.16783,0.916731 -4.46161,-4.102197 -1.55432,-4.929674 z"
             id="path996"
             inkscape:connector-curvature="0"
             style="fill:#ffffff;stroke:#ffffff;stroke-width:0.0828387" />
          <path
             d="m 510.95212,66.894387 c 1.67886,-0.01917 3.36388,0.579335 4.78664,1.535787 -0.69591,0.978534 -1.30263,2.047121 -2.08777,2.937327 -1.23639,-0.07414 -2.38889,-0.502481 -3.54139,-0.755958 0.25181,-1.239041 0.50427,-2.47722 0.84252,-3.717156 z"
             id="path998"
             inkscape:connector-curvature="0"
             style="fill:#ffffff;stroke:#ffffff;stroke-width:0.0828387" />
          <path
             d="m 531.00387,67.116068 c 5.43838,4.621487 8.51792,11.653054 7.97744,18.813597 1.66559,-1.254955 3.32857,-2.685639 5.4419,-3.150187 5.10898,-1.116298 10.46438,3.948519 9.90268,9.076067 0.30742,3.882274 -2.39595,7.004181 -5.01889,9.506135 -0.99883,-2.550528 -0.77453,-6.263242 -3.7039,-7.556162 -3.19521,-1.46689 -7.05013,1.402434 -7.27709,4.761009 -0.66149,4.247053 2.21227,8.543513 6.11487,10.090803 5.85788,2.76157 13.35224,1.53135 17.80592,-3.19876 2.61853,-2.76601 3.81341,-6.399245 4.39364,-10.115507 -3.08129,1.093321 -5.7104,2.888753 -8.51967,4.421026 -0.3303,-5.913545 -0.0396,-11.923309 0.51309,-17.844779 2.49578,2.091284 4.81402,4.362705 7.39896,6.365694 -1.28406,-4.401596 -3.18549,-8.62037 -4.47046,-13.022829 4.94473,-0.141247 9.89121,-0.107693 14.75112,0.191737 -1.2779,4.166654 -3.00092,8.247665 -4.36711,12.413455 2.80662,-1.708895 5.43308,-3.857572 8.41898,-5.303275 0.24095,5.914407 0.1307,11.922415 -0.423,17.844778 -2.40481,-1.650606 -4.71778,-3.39216 -7.20471,-4.691247 0.0288,2.562 0.0566,5.298837 1.40774,7.579997 2.43746,4.83346 8.11696,7.4193 13.41407,7.18525 5.91792,-0.0646 11.06135,-6.03805 9.93889,-11.942739 -0.46896,-2.733318 -3.4169,-5.439281 -6.40635,-4.346823 -2.72891,0.913183 -3.13427,4.273515 -4.34506,6.582932 -3.21551,-3.232283 -4.15164,-8.168156 -2.87374,-12.421379 1.36975,-3.989169 6.11487,-5.982411 10.01306,-5.142535 2.30236,0.680892 3.82757,2.697111 5.34744,4.445727 -1.23198,-7.58179 2.39244,-15.39405 8.25562,-20.227504 3.43278,6.852325 3.25702,15.068193 -0.11376,21.904603 3.16166,-1.889065 6.84788,-4.047457 10.65777,-2.50106 5.58676,1.793643 6.63947,9.025704 4.48283,13.817648 -1.55256,3.63765 -5.14873,5.53199 -8.48788,7.24618 0.40888,-2.91879 2.13896,-6.20584 0.25533,-8.922385 -1.26288,-2.37301 -4.88464,-2.510774 -6.6324,-0.723299 -2.97529,2.681234 -3.62883,7.459014 -1.56138,10.793754 3.06186,5.35274 10.06342,7.57118 15.6961,5.65655 6.77898,-1.92968 11.03572,-8.3351 12.90887,-14.803244 -3.25526,1.184304 -6.41868,2.630864 -9.76667,3.463674 1.26821,-5.313848 3.33035,-10.459035 5.30592,-15.514169 2.05773,2.274105 4.02448,4.549074 6.16345,6.643905 -0.39476,-4.058066 -1.67176,-7.928868 -2.95145,-11.713132 3.63058,0.84339 7.26385,1.86254 10.80966,2.974428 -1.03327,2.659147 -2.32885,5.233514 -3.18374,7.981851 -0.15531,1.944669 0.57406,3.96795 0.24287,5.914407 -0.76392,2.83398 -3.66328,4.36801 -4.51549,7.11545 -1.28675,3.5467 -2.65825,7.18173 -3.67919,10.81411 0.30741,3.88227 1.75922,7.57645 2.50815,11.36778 -3.13606,3.83108 -6.45137,7.48819 -9.67838,11.32103 -21.64052,-8.15407 -45.17096,-11.6946 -68.19713,-9.41254 -13.23745,0.93965 -26.46867,2.41008 -39.2354,6.08132 -2.37739,0.64469 -4.66031,1.90581 -7.2188,2.11071 -3.47339,-2.61147 -6.51141,-5.75897 -9.54589,-8.81466 -0.13964,-4.59231 2.55143,-9.03632 1.0863,-13.70283 -0.83106,-3.25791 -1.66298,-6.60501 -2.58233,-9.95212 -0.56521,-3.26056 -4.55259,-4.45547 -4.76545,-7.807879 0.0601,-2.562 1.09246,-5.134577 0.44422,-7.69041 -0.5546,-2.376526 -1.46423,-4.751294 -2.01973,-7.128714 4.13841,-1.107446 8.36335,-2.38803 12.68368,-3.053904 -1.98704,3.995336 -4.59762,7.733679 -6.31798,11.813795 3.2535,-1.360028 5.78635,-3.860224 8.23353,-6.272094 1.74332,6.074285 3.57761,12.237727 4.52786,18.497426 -3.29147,-2.17163 -6.4955,-4.61088 -10.39634,-5.803107 1.5826,7.489917 7.22675,14.758187 15.18387,15.465567 6.71718,0.63411 15.3234,-4.05183 14.53389,-11.72722 0.12622,-4.504915 -4.94649,-8.07194 -8.98333,-5.819053 -4.04305,1.810452 -3.36919,6.925603 -3.32857,10.545613 -7.10312,-3.45573 -9.08313,-14.650463 -2.42334,-19.581032 3.4089,-3.128106 8.36069,-2.739517 12.35427,-1.018255 -3.06982,-6.325973 -2.53462,-13.928056 1.02091,-19.88308 z"
             id="path1000"
             inkscape:connector-curvature="0"
             style="fill:#ffffff;stroke:#ffffff;stroke-width:0.0828387" />
          <path
             d="m 624.63112,67.682173 c 1.31941,-0.278339 2.5611,0.415049 3.80369,0.754201 -0.34002,1.239936 -0.76571,2.569925 -1.19402,3.811619 -0.88669,-0.07957 -2.56465,-0.150195 -3.36212,-0.228807 -0.10162,-1.499581 -0.74273,-3.348892 0.75245,-4.337109 z"
             id="path1002"
             inkscape:connector-curvature="0"
             style="fill:#ffffff;stroke:#ffffff;stroke-width:0.0828387" />
          <path
             d="m 567.94573,69.27446 c 0.96792,-0.187264 1.93936,-0.286009 2.82251,-0.295916 0.10258,1.235527 0.20228,2.470158 0.2173,3.706547 -1.23642,0.100662 -2.38362,0.291442 -3.6156,0.481326 -0.0128,-1.324716 -1.09597,-3.256155 0.57582,-3.892021 z"
             id="path1004"
             inkscape:connector-curvature="0"
             style="fill:#ffffff;stroke:#ffffff;stroke-width:0.0828387" />
          <path
             d="m 503.9753,74.919507 c 1.03592,-2.043573 2.7925,-3.123664 5.09485,-2.529309 0.0128,1.32558 -0.061,2.561106 -0.13325,3.886717 -1.76543,0.196851 -3.53699,-0.31445 -4.96151,-1.357408 z"
             id="path1006"
             inkscape:connector-curvature="0"
             style="fill:#ffffff;stroke:#ffffff;stroke-width:0.0828387" />
          <path
             d="m 629.63499,73.103783 c 1.49693,-0.193336 2.91173,-0.208356 4.41218,-0.136134 0.01,0.793922 0.0288,2.561105 0.0361,3.445144 -1.32117,0.190779 -2.64413,0.293359 -3.96706,0.394756 -0.19174,-1.233769 -0.38328,-2.467505 -0.48132,-3.703894 z"
             id="path1008"
             inkscape:connector-curvature="0"
             style="fill:#ffffff;stroke:#ffffff;stroke-width:0.0828387" />
          <path
             d="m 568.08704,90.291476 c 1.13128,-1.337051 3.09982,0.7604 1.87491,1.922618 -1.22316,1.249651 -3.18726,-0.759505 -1.87491,-1.922618 z"
             id="path1010"
             inkscape:connector-curvature="0"
             style="fill:#000000;fill-opacity:1;stroke:none;stroke-width:0.0828387" />
          <path
             d="m 499.76448,101.72643 c -2.13896,-1.743345 -2.61057,-4.38923 -1.75482,-6.96005 1.61261,2.013566 2.08157,4.482829 1.75482,6.96005 z"
             id="path1012"
             inkscape:connector-curvature="0"
             style="fill:#000000;fill-opacity:1;stroke:none;stroke-width:0.0828387" />
          <path
             d="m 638.09021,95.445515 c 0.80894,1.403297 1.09157,2.99031 1.28496,4.577325 -0.96261,0.62967 -2.01797,1.26023 -2.98059,1.88817 0.15019,-2.297947 0.74535,-4.424542 1.69563,-6.465495 z"
             id="path1014"
             inkscape:connector-curvature="0"
             style="fill:#000000;fill-opacity:1;stroke:none;stroke-width:0.0828387" />
          <path
             d="m 564.86268,118.50259 c 1.12422,-2.13366 2.24758,-4.17637 3.37535,-6.30916 1.16842,2.01797 2.33946,4.03595 3.5105,6.05571 -1.12422,2.2202 -2.33856,4.35213 -3.54936,6.57412 -1.17279,-2.1072 -2.25554,-4.21437 -3.33649,-6.32067 z"
             id="path1016"
             inkscape:connector-curvature="0"
             style="fill:#000000;fill-opacity:1;stroke:none;stroke-width:0.0828387" />
          <path
             d="m 552.09509,114.13634 c 1.32912,0.33825 2.65914,0.76567 3.9017,1.28144 -0.60934,0.97851 -1.21606,1.95528 -1.82192,2.93557 -0.88666,-0.34442 -1.68678,-0.68885 -2.57258,-1.03241 0.16521,-1.06242 0.3303,-2.12129 0.4928,-3.1846 z"
             id="path1018"
             inkscape:connector-curvature="0"
             style="fill:#000000;fill-opacity:1;stroke:none;stroke-width:0.0828387" />
          <path
             d="m 580.35653,114.1805 c 1.06242,-0.0128 2.12129,0.0662 3.26849,0.053 0.0128,1.14895 0.11377,2.29615 0.12815,3.44425 -1.15075,0.0128 -2.29619,0.11312 -3.4425,0.21283 -0.016,-1.23639 -0.0256,-2.47192 0.046,-3.71007 z"
             id="path1020"
             inkscape:connector-curvature="0"
             style="fill:#000000;fill-opacity:1;stroke:none;stroke-width:0.0828387" />
          <path
             d="m 534.09311,115.48138 c 4.56761,-2.34652 13.1597,-0.0546 11.81466,6.31712 -2.13896,6.2076 -12.46113,7.29121 -15.87889,1.58698 -1.53754,-3.33828 1.07568,-6.63592 4.06423,-7.9041 z"
             id="path1022"
             inkscape:connector-curvature="0"
             style="fill:#000000;fill-opacity:1;stroke:none;stroke-width:0.0828387" />
          <path
             d="m 594.15034,115.61914 c 4.83962,-1.73008 12.47085,1.36709 11.73959,7.29121 -2.2255,6.64742 -13.3593,5.97625 -16.07408,0.0876 -1.27084,-3.34179 0.98649,-6.63505 4.33449,-7.37864 z"
             id="path1024"
             inkscape:connector-curvature="0"
             style="fill:#000000;fill-opacity:1;stroke:none;stroke-width:0.0828387" />
          <path
             d="m 518.59572,119.71428 c 1.76894,0.33292 2.75364,1.46954 3.30118,3.14219 -0.96614,0.36475 -1.9332,0.81694 -2.89936,1.26909 -0.35855,-0.43803 -1.24962,-1.22316 -1.69564,-1.65854 0.34443,-0.71269 0.9485,-2.04271 1.29382,-2.75274 z"
             id="path1026"
             inkscape:connector-curvature="0"
             style="fill:#000000;fill-opacity:1;stroke:none;stroke-width:0.0828387" />
          <path
             d="m 614.77701,119.81229 c 1.23639,0.0732 2.47367,0.0591 3.62263,0.13613 0.10865,1.76453 -0.58464,3.27383 -2.25289,3.99799 -0.44688,-0.52546 -1.34236,-1.48722 -1.70094,-1.92614 0.0831,-0.52811 0.2483,-1.59052 0.3312,-2.20786 z"
             id="path1028"
             inkscape:connector-curvature="0"
             style="fill:#000000;fill-opacity:1;stroke:none;stroke-width:0.0828387" />
          <path
             d="m 552.80423,122.51911 c 0.88314,-0.0981 1.85551,-0.10865 2.82609,-0.20835 0.36206,0.79219 0.72326,1.49427 1.0836,2.28647 -0.52284,0.53517 -1.13483,1.07124 -1.65853,1.60731 -0.79926,-0.25597 -1.68506,-0.60053 -2.48428,-0.85666 0.0767,-0.97233 0.15818,-1.85548 0.23296,-2.8287 z"
             id="path1030"
             inkscape:connector-curvature="0"
             style="fill:#000000;fill-opacity:1;stroke:none;stroke-width:0.0828387" />
          <path
             d="m 505.18078,128.78149 c 0.24639,-1.7707 0.66767,-3.54229 1.09067,-5.22556 1.16401,1.31235 2.59028,2.62205 3.49021,4.202 0.0192,1.6771 -0.31605,3.36037 -0.47427,5.04184 -1.5137,-1.22137 -3.11749,-2.44012 -4.10661,-4.01828 z"
             id="path1032"
             inkscape:connector-curvature="0"
             style="fill:#000000;fill-opacity:1;stroke:none;stroke-width:0.0828387" />
          <path
             d="m 578.54077,125.68253 c 0.60762,-0.88931 1.21786,-1.86695 1.82458,-2.75805 0.70918,0.34621 2.13014,1.12515 2.84283,1.47043 -0.69326,1.15606 -1.39006,2.22464 -2.08508,3.29237 -0.71093,-0.5237 -1.95969,-1.48191 -2.58233,-2.00475 z"
             id="path1034"
             inkscape:connector-curvature="0"
             style="fill:#000000;fill-opacity:1;stroke:none;stroke-width:0.0828387" />
          <path
             d="m 626.2614,128.25338 c 1.30615,-1.69387 2.61143,-3.29856 4.01032,-4.90321 0.72595,1.84752 1.36623,3.78337 2.09218,5.63092 -1.30618,1.6029 -2.70331,3.20844 -4.09689,4.81399 -0.63942,-1.84752 -1.2779,-3.69593 -2.00561,-5.5417 z"
             id="path1036"
             inkscape:connector-curvature="0"
             style="fill:#000000;fill-opacity:1;stroke:none;stroke-width:0.0828387" />
          <path
             d="m 518.69021,128.36817 c 0.88049,-0.27387 1.75923,-0.63763 2.63972,-0.91139 0.44688,0.52545 1.43244,1.66207 1.88021,2.27496 -1.13748,0.89462 -2.36681,1.61706 -3.77544,2.07362 -0.18822,-0.88225 -0.55815,-2.5567 -0.74449,-3.43719 z"
             id="path1038"
             inkscape:connector-curvature="0"
             style="fill:#000000;fill-opacity:1;stroke:none;stroke-width:0.0828387" />
          <path
             d="m 613.35866,127.42146 c 0.79661,0.34529 1.59762,0.77804 2.39599,1.12247 0.01,0.61819 0.0192,1.76629 0.0256,2.29615 -0.70387,0.3621 -1.4077,0.63501 -2.19725,0.99621 -0.44688,-0.43627 -1.33884,-1.22226 -1.87315,-1.65767 0.51929,-0.97764 1.03858,-1.86695 1.64882,-2.75716 z"
             id="path1040"
             inkscape:connector-curvature="0"
             style="fill:#000000;fill-opacity:1;stroke:none;stroke-width:0.0828387" />
          <path
             d="m 524.2655,137.49281 c 11.89327,-2.78013 24.07271,-3.53082 36.16379,-4.36891 17.12678,-0.6288 34.53088,-0.11312 51.18075,4.21082 4.43161,1.18782 9.21473,2.63707 12.43465,6.1343 -3.14134,3.74279 -8.16906,4.32918 -12.57417,5.26001 -8.90737,1.42186 -17.9958,1.96323 -26.99942,2.32619 -18.10178,0.37357 -36.38547,0.22082 -54.34331,-2.58673 -5.66448,-0.99707 -11.76788,-1.90227 -16.40084,-5.64946 2.34476,-3.55993 6.74988,-4.40246 10.53855,-5.32622 z"
             id="path1042"
             inkscape:connector-curvature="0"
             style="fill:#ffffff;stroke:#ffffff;stroke-width:0.0828387" />
        </g>
        <text
           xml:space="preserve"
           style="font-style:normal;font-weight:normal;font-size:101.167px;line-height:1.25;font-family:sans-serif;letter-spacing:0px;word-spacing:0px;fill:#ffffff;fill-opacity:1;stroke:none;stroke-width:2.52916"
           x="253.33382"
           y="271.67477"
           id="text1107"
           transform="scale(1.0507625,0.95168984)"><tspan
             sodipodi:role="line"
             id="tspan1105"
             x="253.33382"
             y="271.67477"
             style="font-style:normal;font-variant:normal;font-weight:500;font-stretch:normal;font-size:101.167px;font-family:'Keep Calm';-inkscape-font-specification:'Keep Calm, Medium';font-variant-ligatures:normal;font-variant-caps:normal;font-variant-numeric:normal;font-feature-settings:normal;text-align:start;writing-mode:lr-tb;text-anchor:start;fill:#ffffff;stroke-width:2.52916">KEEP CALM</tspan></text>
        <text
           xml:space="preserve"
           style="font-style:normal;font-weight:normal;font-size:45.3767px;line-height:1.25;font-family:sans-serif;letter-spacing:0px;word-spacing:0px;fill:#ffffff;fill-opacity:1;stroke:none;stroke-width:1.13442"
           x="492.6738"
           y="332.98935"
           id="text1107-1-8"
           transform="scale(1.0507625,0.95168984)"><tspan
             sodipodi:role="line"
             id="tspan1105-9-8"
             x="492.6738"
             y="332.98935"
             style="font-style:normal;font-variant:normal;font-weight:500;font-stretch:normal;font-size:45.3767px;font-family:'Keep Calm';-inkscape-font-specification:'Keep Calm, Medium';font-variant-ligatures:normal;font-variant-caps:normal;font-variant-numeric:normal;font-feature-settings:normal;text-align:start;writing-mode:lr-tb;text-anchor:start;fill:#ffffff;stroke-width:1.13442">AND</tspan></text>
        <text
           xml:space="preserve"
           style="font-style:normal;font-weight:normal;font-size:100.088px;line-height:1.25;font-family:sans-serif;letter-spacing:0px;word-spacing:0px;fill:#ffffff;fill-opacity:1;stroke:none;stroke-width:2.50221"
           x="295.57993"
           y="424.11682"
           id="text1107-1-8-1-9"
           transform="scale(1.0234244,0.97711175)"><tspan
             sodipodi:role="line"
             id="tspan1105-9-8-0-9"
             x="295.57993"
             y="424.11682"
             style="font-style:normal;font-variant:normal;font-weight:500;font-stretch:normal;font-size:100.088px;font-family:'Keep Calm';-inkscape-font-specification:'Keep Calm, Medium';font-variant-ligatures:normal;font-variant-caps:normal;font-variant-numeric:normal;font-feature-settings:normal;text-align:start;writing-mode:lr-tb;text-anchor:start;fill:#ffffff;stroke-width:2.50221">LEARN ON</tspan></text>
      </g>
    </g>
  </g>
</svg>
